<?xml version="1.0" standalone="no"?>
<!DOCTYPE svg PUBLIC "-//W3C//DTD SVG 20010904//EN"
 "http://www.w3.org/TR/2001/REC-SVG-20010904/DTD/svg10.dtd">
<svg version="1.0" xmlns="http://www.w3.org/2000/svg"
 width="500.000000pt" height="500.000000pt" viewBox="0 0 500.000000 500.000000"
 preserveAspectRatio="xMidYMid meet">

<g transform="translate(0.000000,500.000000) scale(0.100000,-0.100000)"
fill="#380" stroke="none">
<path d="M3075 3276 c-79 -19 -154 -52 -162 -72 -3 -8 1 -22 9 -30 12 -13 19
-13 51 1 l37 15 0 -87 c0 -98 26 -615 36 -708 12 -117 51 -168 117 -151 43 11
120 70 173 135 198 240 275 542 185 726 -58 117 -155 175 -300 181 -51 2 -110
-2 -146 -10z m264 -77 c61 -27 105 -70 133 -133 18 -42 22 -68 22 -146 0 -82
-5 -109 -36 -198 -59 -170 -176 -341 -274 -398 -49 -29 -59 -27 -68 13 -7 34
-32 454 -42 695 l-7 176 44 11 c61 14 173 5 228 -20z"/>
<path d="M2480 3231 c-25 -9 -97 -47 -161 -84 -64 -37 -119 -67 -122 -67 -3 0
-3 18 0 40 6 39 5 40 -25 40 -35 0 -42 -13 -42 -82 0 -47 -3 -53 -46 -93 -51
-48 -52 -69 -1 -54 17 5 33 9 34 9 2 0 3 -72 3 -159 0 -502 83 -672 280 -571
134 68 381 335 368 397 -3 13 -44 -22 -158 -137 -150 -150 -227 -209 -293
-224 -66 -15 -110 87 -123 281 l-6 88 84 61 c46 34 157 111 248 172 164 109
209 146 197 159 -25 24 -236 -100 -518 -306 -18 -13 -19 -9 -19 115 0 71 3
139 6 151 11 39 278 203 383 234 42 12 53 32 25 43 -27 10 -67 6 -114 -13z"/>
<path d="M1181 3183 c-68 -83 -119 -260 -142 -498 -28 -286 22 -495 118 -495
81 0 148 101 215 326 l33 110 18 -89 c32 -166 107 -299 185 -328 109 -41 224
65 285 263 43 139 51 196 52 363 0 140 -2 165 -20 200 -21 42 -52 55 -47 20 1
-11 5 -72 9 -136 19 -357 -120 -706 -258 -649 -83 35 -142 189 -169 440 -13
129 -17 140 -39 140 -29 0 -37 -18 -61 -130 -64 -295 -164 -510 -215 -459 -31
31 -49 139 -48 284 2 199 32 384 94 573 17 51 29 95 26 98 -2 3 -19 -12 -36
-33z"/>
</g>
</svg>
